<svg width="20" height="20" viewBox="0 0 20 20" fill="none" xmlns="http://www.w3.org/2000/svg">
<path d="M10 1.66666C11.0944 1.66666 12.178 1.8822 13.189 2.30099C14.2001 2.71978 15.1188 3.33361 15.8926 4.10743C16.6664 4.88125 17.2802 5.79991 17.699 6.81096C18.1178 7.82201 18.3334 8.90564 18.3334 9.99999C18.3334 12.2101 17.4554 14.3297 15.8926 15.8925C14.3298 17.4553 12.2102 18.3333 10 18.3333C8.90567 18.3333 7.82204 18.1178 6.81099 17.699C5.79994 17.2802 4.88129 16.6664 4.10746 15.8925C2.54466 14.3297 1.66669 12.2101 1.66669 9.99999C1.66669 7.78985 2.54466 5.67024 4.10746 4.10743C5.67027 2.54463 7.78988 1.66666 10 1.66666ZM5.83335 8.33332L10 12.5L14.1667 8.33332H5.83335Z" fill="white"/>
</svg>
